<mxfile host="Electron" modified="2023-05-26T10:36:13.366Z" agent="Mozilla/5.0 (Windows NT 10.0; Win64; x64) AppleWebKit/537.36 (KHTML, like Gecko) draw.io/21.2.8 Chrome/112.0.5615.165 Electron/24.2.0 Safari/537.36" etag="BldmpqbyVZM_xt6KNSRm" version="21.2.8" type="device">
  <diagram name="Page-1" id="hEdmGVlCrhH93QvtXB8m">
    <mxGraphModel dx="1836" dy="1253" grid="1" gridSize="10" guides="1" tooltips="1" connect="1" arrows="1" fold="1" page="0" pageScale="1" pageWidth="827" pageHeight="1169" math="0" shadow="0">
      <root>
        <mxCell id="0" />
        <mxCell id="1" parent="0" />
        <mxCell id="-Dt_mCIl79P11bltRRgN-31" style="edgeStyle=orthogonalEdgeStyle;rounded=0;orthogonalLoop=1;jettySize=auto;html=1;entryX=0.5;entryY=0;entryDx=0;entryDy=0;" edge="1" parent="1" source="-Dt_mCIl79P11bltRRgN-19" target="-Dt_mCIl79P11bltRRgN-23">
          <mxGeometry relative="1" as="geometry" />
        </mxCell>
        <mxCell id="-Dt_mCIl79P11bltRRgN-19" value="&lt;font style=&quot;font-size: 20px;&quot;&gt;commit-3&lt;/font&gt;" style="swimlane;fontStyle=0;childLayout=stackLayout;horizontal=1;startSize=30;horizontalStack=0;resizeParent=1;resizeParentMax=0;resizeLast=0;collapsible=1;marginBottom=0;whiteSpace=wrap;html=1;fillColor=#ffe6cc;strokeColor=#d79b00;" vertex="1" parent="1">
          <mxGeometry x="-60" y="40" width="160" height="120" as="geometry" />
        </mxCell>
        <mxCell id="-Dt_mCIl79P11bltRRgN-20" value="&lt;font style=&quot;font-size: 15px;&quot;&gt;file-1.txt&lt;/font&gt;" style="text;strokeColor=none;fillColor=none;align=left;verticalAlign=middle;spacingLeft=4;spacingRight=4;overflow=hidden;points=[[0,0.5],[1,0.5]];portConstraint=eastwest;rotatable=0;whiteSpace=wrap;html=1;" vertex="1" parent="-Dt_mCIl79P11bltRRgN-19">
          <mxGeometry y="30" width="160" height="30" as="geometry" />
        </mxCell>
        <mxCell id="-Dt_mCIl79P11bltRRgN-21" value="&lt;font style=&quot;font-size: 15px;&quot;&gt;file-2.txt&lt;/font&gt;" style="text;strokeColor=none;fillColor=none;align=left;verticalAlign=middle;spacingLeft=4;spacingRight=4;overflow=hidden;points=[[0,0.5],[1,0.5]];portConstraint=eastwest;rotatable=0;whiteSpace=wrap;html=1;" vertex="1" parent="-Dt_mCIl79P11bltRRgN-19">
          <mxGeometry y="60" width="160" height="30" as="geometry" />
        </mxCell>
        <mxCell id="-Dt_mCIl79P11bltRRgN-22" value="&lt;font style=&quot;font-size: 15px;&quot;&gt;file-3.txt&lt;/font&gt;" style="text;strokeColor=none;fillColor=none;align=left;verticalAlign=middle;spacingLeft=4;spacingRight=4;overflow=hidden;points=[[0,0.5],[1,0.5]];portConstraint=eastwest;rotatable=0;whiteSpace=wrap;html=1;" vertex="1" parent="-Dt_mCIl79P11bltRRgN-19">
          <mxGeometry y="90" width="160" height="30" as="geometry" />
        </mxCell>
        <mxCell id="-Dt_mCIl79P11bltRRgN-37" style="edgeStyle=orthogonalEdgeStyle;rounded=0;orthogonalLoop=1;jettySize=auto;html=1;exitX=0.5;exitY=1;exitDx=0;exitDy=0;entryX=0.5;entryY=0;entryDx=0;entryDy=0;" edge="1" parent="1" source="-Dt_mCIl79P11bltRRgN-23" target="-Dt_mCIl79P11bltRRgN-27">
          <mxGeometry relative="1" as="geometry" />
        </mxCell>
        <mxCell id="-Dt_mCIl79P11bltRRgN-23" value="&lt;font style=&quot;font-size: 20px;&quot;&gt;commit-2&lt;/font&gt;" style="swimlane;fontStyle=0;childLayout=stackLayout;horizontal=1;startSize=30;horizontalStack=0;resizeParent=1;resizeParentMax=0;resizeLast=0;collapsible=1;marginBottom=0;whiteSpace=wrap;html=1;fillColor=#fff2cc;strokeColor=#d6b656;" vertex="1" parent="1">
          <mxGeometry x="-60" y="200" width="160" height="90" as="geometry">
            <mxRectangle x="-80" y="240" width="120" height="40" as="alternateBounds" />
          </mxGeometry>
        </mxCell>
        <mxCell id="-Dt_mCIl79P11bltRRgN-24" value="&lt;font style=&quot;font-size: 15px;&quot;&gt;file-1.txt&lt;/font&gt;" style="text;strokeColor=none;fillColor=none;align=left;verticalAlign=middle;spacingLeft=4;spacingRight=4;overflow=hidden;points=[[0,0.5],[1,0.5]];portConstraint=eastwest;rotatable=0;whiteSpace=wrap;html=1;" vertex="1" parent="-Dt_mCIl79P11bltRRgN-23">
          <mxGeometry y="30" width="160" height="30" as="geometry" />
        </mxCell>
        <mxCell id="-Dt_mCIl79P11bltRRgN-25" value="&lt;font style=&quot;font-size: 15px;&quot;&gt;file-2.txt&lt;/font&gt;" style="text;strokeColor=none;fillColor=none;align=left;verticalAlign=middle;spacingLeft=4;spacingRight=4;overflow=hidden;points=[[0,0.5],[1,0.5]];portConstraint=eastwest;rotatable=0;whiteSpace=wrap;html=1;" vertex="1" parent="-Dt_mCIl79P11bltRRgN-23">
          <mxGeometry y="60" width="160" height="30" as="geometry" />
        </mxCell>
        <mxCell id="-Dt_mCIl79P11bltRRgN-27" value="&lt;font style=&quot;font-size: 20px;&quot;&gt;commit-1&lt;/font&gt;" style="swimlane;fontStyle=0;childLayout=stackLayout;horizontal=1;startSize=30;horizontalStack=0;resizeParent=1;resizeParentMax=0;resizeLast=0;collapsible=1;marginBottom=0;whiteSpace=wrap;html=1;fillColor=#dae8fc;strokeColor=#6c8ebf;" vertex="1" parent="1">
          <mxGeometry x="-60" y="350" width="160" height="60" as="geometry" />
        </mxCell>
        <mxCell id="-Dt_mCIl79P11bltRRgN-28" value="&lt;font style=&quot;font-size: 15px;&quot;&gt;file-1.txt&lt;/font&gt;" style="text;strokeColor=none;fillColor=none;align=left;verticalAlign=middle;spacingLeft=4;spacingRight=4;overflow=hidden;points=[[0,0.5],[1,0.5]];portConstraint=eastwest;rotatable=0;whiteSpace=wrap;html=1;" vertex="1" parent="-Dt_mCIl79P11bltRRgN-27">
          <mxGeometry y="30" width="160" height="30" as="geometry" />
        </mxCell>
        <mxCell id="-Dt_mCIl79P11bltRRgN-42" value="" style="shape=flexArrow;endArrow=classic;html=1;rounded=0;" edge="1" parent="1">
          <mxGeometry width="50" height="50" relative="1" as="geometry">
            <mxPoint x="120" y="85" as="sourcePoint" />
            <mxPoint x="300" y="85" as="targetPoint" />
          </mxGeometry>
        </mxCell>
        <mxCell id="-Dt_mCIl79P11bltRRgN-43" value="&lt;font style=&quot;font-size: 20px;&quot;&gt;Reset commit-2&lt;/font&gt;" style="text;html=1;align=center;verticalAlign=middle;resizable=0;points=[];autosize=1;strokeColor=none;fillColor=none;" vertex="1" parent="1">
          <mxGeometry x="120" y="40" width="160" height="40" as="geometry" />
        </mxCell>
        <mxCell id="-Dt_mCIl79P11bltRRgN-49" style="edgeStyle=orthogonalEdgeStyle;rounded=0;orthogonalLoop=1;jettySize=auto;html=1;exitX=0.5;exitY=1;exitDx=0;exitDy=0;entryX=0.5;entryY=0;entryDx=0;entryDy=0;" edge="1" parent="1" source="-Dt_mCIl79P11bltRRgN-50" target="-Dt_mCIl79P11bltRRgN-53">
          <mxGeometry relative="1" as="geometry" />
        </mxCell>
        <mxCell id="-Dt_mCIl79P11bltRRgN-50" value="&lt;font style=&quot;font-size: 20px;&quot;&gt;commit-2&lt;/font&gt;" style="swimlane;fontStyle=0;childLayout=stackLayout;horizontal=1;startSize=30;horizontalStack=0;resizeParent=1;resizeParentMax=0;resizeLast=0;collapsible=1;marginBottom=0;whiteSpace=wrap;html=1;fillColor=#fff2cc;strokeColor=#d6b656;" vertex="1" parent="1">
          <mxGeometry x="320" y="40" width="160" height="90" as="geometry">
            <mxRectangle x="-80" y="240" width="120" height="40" as="alternateBounds" />
          </mxGeometry>
        </mxCell>
        <mxCell id="-Dt_mCIl79P11bltRRgN-51" value="&lt;font style=&quot;font-size: 15px;&quot;&gt;file-1.txt&lt;/font&gt;" style="text;strokeColor=none;fillColor=none;align=left;verticalAlign=middle;spacingLeft=4;spacingRight=4;overflow=hidden;points=[[0,0.5],[1,0.5]];portConstraint=eastwest;rotatable=0;whiteSpace=wrap;html=1;" vertex="1" parent="-Dt_mCIl79P11bltRRgN-50">
          <mxGeometry y="30" width="160" height="30" as="geometry" />
        </mxCell>
        <mxCell id="-Dt_mCIl79P11bltRRgN-52" value="&lt;font style=&quot;font-size: 15px;&quot;&gt;file-2.txt&lt;/font&gt;" style="text;strokeColor=none;fillColor=none;align=left;verticalAlign=middle;spacingLeft=4;spacingRight=4;overflow=hidden;points=[[0,0.5],[1,0.5]];portConstraint=eastwest;rotatable=0;whiteSpace=wrap;html=1;" vertex="1" parent="-Dt_mCIl79P11bltRRgN-50">
          <mxGeometry y="60" width="160" height="30" as="geometry" />
        </mxCell>
        <mxCell id="-Dt_mCIl79P11bltRRgN-53" value="&lt;font style=&quot;font-size: 20px;&quot;&gt;commit-1&lt;/font&gt;" style="swimlane;fontStyle=0;childLayout=stackLayout;horizontal=1;startSize=30;horizontalStack=0;resizeParent=1;resizeParentMax=0;resizeLast=0;collapsible=1;marginBottom=0;whiteSpace=wrap;html=1;fillColor=#dae8fc;strokeColor=#6c8ebf;" vertex="1" parent="1">
          <mxGeometry x="320" y="190" width="160" height="60" as="geometry" />
        </mxCell>
        <mxCell id="-Dt_mCIl79P11bltRRgN-54" value="&lt;font style=&quot;font-size: 15px;&quot;&gt;file-1.txt&lt;/font&gt;" style="text;strokeColor=none;fillColor=none;align=left;verticalAlign=middle;spacingLeft=4;spacingRight=4;overflow=hidden;points=[[0,0.5],[1,0.5]];portConstraint=eastwest;rotatable=0;whiteSpace=wrap;html=1;" vertex="1" parent="-Dt_mCIl79P11bltRRgN-53">
          <mxGeometry y="30" width="160" height="30" as="geometry" />
        </mxCell>
        <mxCell id="-Dt_mCIl79P11bltRRgN-55" value="&lt;font style=&quot;font-size: 25px;&quot;&gt;Reset&lt;/font&gt;" style="swimlane;whiteSpace=wrap;html=1;startSize=40;" vertex="1" parent="1">
          <mxGeometry x="-80" y="-40" width="580" height="470" as="geometry" />
        </mxCell>
        <mxCell id="0UET-josoI7YyRMoQ-3k-1" style="edgeStyle=orthogonalEdgeStyle;rounded=0;orthogonalLoop=1;jettySize=auto;html=1;entryX=0.5;entryY=0;entryDx=0;entryDy=0;" edge="1" parent="1" source="0UET-josoI7YyRMoQ-3k-2" target="0UET-josoI7YyRMoQ-3k-7">
          <mxGeometry relative="1" as="geometry" />
        </mxCell>
        <mxCell id="0UET-josoI7YyRMoQ-3k-2" value="&lt;font style=&quot;font-size: 20px;&quot;&gt;commit-3&lt;/font&gt;" style="swimlane;fontStyle=0;childLayout=stackLayout;horizontal=1;startSize=30;horizontalStack=0;resizeParent=1;resizeParentMax=0;resizeLast=0;collapsible=1;marginBottom=0;whiteSpace=wrap;html=1;fillColor=#ffe6cc;strokeColor=#d79b00;" vertex="1" parent="1">
          <mxGeometry x="580" y="40" width="160" height="120" as="geometry" />
        </mxCell>
        <mxCell id="0UET-josoI7YyRMoQ-3k-3" value="&lt;font style=&quot;font-size: 15px;&quot;&gt;file-1.txt&lt;/font&gt;" style="text;strokeColor=none;fillColor=none;align=left;verticalAlign=middle;spacingLeft=4;spacingRight=4;overflow=hidden;points=[[0,0.5],[1,0.5]];portConstraint=eastwest;rotatable=0;whiteSpace=wrap;html=1;" vertex="1" parent="0UET-josoI7YyRMoQ-3k-2">
          <mxGeometry y="30" width="160" height="30" as="geometry" />
        </mxCell>
        <mxCell id="0UET-josoI7YyRMoQ-3k-4" value="&lt;font style=&quot;font-size: 15px;&quot;&gt;file-2.txt&lt;/font&gt;" style="text;strokeColor=none;fillColor=none;align=left;verticalAlign=middle;spacingLeft=4;spacingRight=4;overflow=hidden;points=[[0,0.5],[1,0.5]];portConstraint=eastwest;rotatable=0;whiteSpace=wrap;html=1;" vertex="1" parent="0UET-josoI7YyRMoQ-3k-2">
          <mxGeometry y="60" width="160" height="30" as="geometry" />
        </mxCell>
        <mxCell id="0UET-josoI7YyRMoQ-3k-5" value="&lt;font style=&quot;font-size: 15px;&quot;&gt;file-3.txt&lt;/font&gt;" style="text;strokeColor=none;fillColor=none;align=left;verticalAlign=middle;spacingLeft=4;spacingRight=4;overflow=hidden;points=[[0,0.5],[1,0.5]];portConstraint=eastwest;rotatable=0;whiteSpace=wrap;html=1;" vertex="1" parent="0UET-josoI7YyRMoQ-3k-2">
          <mxGeometry y="90" width="160" height="30" as="geometry" />
        </mxCell>
        <mxCell id="0UET-josoI7YyRMoQ-3k-6" style="edgeStyle=orthogonalEdgeStyle;rounded=0;orthogonalLoop=1;jettySize=auto;html=1;exitX=0.5;exitY=1;exitDx=0;exitDy=0;entryX=0.5;entryY=0;entryDx=0;entryDy=0;" edge="1" parent="1" source="0UET-josoI7YyRMoQ-3k-7" target="0UET-josoI7YyRMoQ-3k-10">
          <mxGeometry relative="1" as="geometry" />
        </mxCell>
        <mxCell id="0UET-josoI7YyRMoQ-3k-7" value="&lt;font style=&quot;font-size: 20px;&quot;&gt;commit-2&lt;/font&gt;" style="swimlane;fontStyle=0;childLayout=stackLayout;horizontal=1;startSize=30;horizontalStack=0;resizeParent=1;resizeParentMax=0;resizeLast=0;collapsible=1;marginBottom=0;whiteSpace=wrap;html=1;fillColor=#fff2cc;strokeColor=#d6b656;" vertex="1" parent="1">
          <mxGeometry x="580" y="200" width="160" height="90" as="geometry">
            <mxRectangle x="-80" y="240" width="120" height="40" as="alternateBounds" />
          </mxGeometry>
        </mxCell>
        <mxCell id="0UET-josoI7YyRMoQ-3k-8" value="&lt;font style=&quot;font-size: 15px;&quot;&gt;file-1.txt&lt;/font&gt;" style="text;strokeColor=none;fillColor=none;align=left;verticalAlign=middle;spacingLeft=4;spacingRight=4;overflow=hidden;points=[[0,0.5],[1,0.5]];portConstraint=eastwest;rotatable=0;whiteSpace=wrap;html=1;" vertex="1" parent="0UET-josoI7YyRMoQ-3k-7">
          <mxGeometry y="30" width="160" height="30" as="geometry" />
        </mxCell>
        <mxCell id="0UET-josoI7YyRMoQ-3k-9" value="&lt;font style=&quot;font-size: 15px;&quot;&gt;file-2.txt&lt;/font&gt;" style="text;strokeColor=none;fillColor=none;align=left;verticalAlign=middle;spacingLeft=4;spacingRight=4;overflow=hidden;points=[[0,0.5],[1,0.5]];portConstraint=eastwest;rotatable=0;whiteSpace=wrap;html=1;" vertex="1" parent="0UET-josoI7YyRMoQ-3k-7">
          <mxGeometry y="60" width="160" height="30" as="geometry" />
        </mxCell>
        <mxCell id="0UET-josoI7YyRMoQ-3k-10" value="&lt;font style=&quot;font-size: 20px;&quot;&gt;commit-1&lt;/font&gt;" style="swimlane;fontStyle=0;childLayout=stackLayout;horizontal=1;startSize=30;horizontalStack=0;resizeParent=1;resizeParentMax=0;resizeLast=0;collapsible=1;marginBottom=0;whiteSpace=wrap;html=1;fillColor=#dae8fc;strokeColor=#6c8ebf;" vertex="1" parent="1">
          <mxGeometry x="580" y="350" width="160" height="60" as="geometry" />
        </mxCell>
        <mxCell id="0UET-josoI7YyRMoQ-3k-11" value="&lt;font style=&quot;font-size: 15px;&quot;&gt;file-1.txt&lt;/font&gt;" style="text;strokeColor=none;fillColor=none;align=left;verticalAlign=middle;spacingLeft=4;spacingRight=4;overflow=hidden;points=[[0,0.5],[1,0.5]];portConstraint=eastwest;rotatable=0;whiteSpace=wrap;html=1;" vertex="1" parent="0UET-josoI7YyRMoQ-3k-10">
          <mxGeometry y="30" width="160" height="30" as="geometry" />
        </mxCell>
        <mxCell id="0UET-josoI7YyRMoQ-3k-12" value="" style="shape=flexArrow;endArrow=classic;html=1;rounded=0;" edge="1" parent="1">
          <mxGeometry width="50" height="50" relative="1" as="geometry">
            <mxPoint x="760" y="85" as="sourcePoint" />
            <mxPoint x="940" y="85" as="targetPoint" />
          </mxGeometry>
        </mxCell>
        <mxCell id="0UET-josoI7YyRMoQ-3k-13" value="&lt;font style=&quot;font-size: 20px;&quot;&gt;Revert commit-2&lt;/font&gt;" style="text;html=1;align=center;verticalAlign=middle;resizable=0;points=[];autosize=1;strokeColor=none;fillColor=none;" vertex="1" parent="1">
          <mxGeometry x="755" y="40" width="170" height="40" as="geometry" />
        </mxCell>
        <mxCell id="0UET-josoI7YyRMoQ-3k-14" value="&lt;font style=&quot;font-size: 25px;&quot;&gt;Revert&lt;/font&gt;" style="swimlane;whiteSpace=wrap;html=1;startSize=40;" vertex="1" parent="1">
          <mxGeometry x="560" y="-40" width="580" height="640" as="geometry" />
        </mxCell>
        <mxCell id="0UET-josoI7YyRMoQ-3k-15" value="&lt;font style=&quot;font-size: 20px;&quot;&gt;commit-3&lt;/font&gt;" style="swimlane;fontStyle=0;childLayout=stackLayout;horizontal=1;startSize=30;horizontalStack=0;resizeParent=1;resizeParentMax=0;resizeLast=0;collapsible=1;marginBottom=0;whiteSpace=wrap;html=1;fillColor=#ffe6cc;strokeColor=#d79b00;" vertex="1" parent="0UET-josoI7YyRMoQ-3k-14">
          <mxGeometry x="400" y="210" width="160" height="120" as="geometry" />
        </mxCell>
        <mxCell id="0UET-josoI7YyRMoQ-3k-16" value="&lt;font style=&quot;font-size: 15px;&quot;&gt;file-1.txt&lt;/font&gt;" style="text;strokeColor=none;fillColor=none;align=left;verticalAlign=middle;spacingLeft=4;spacingRight=4;overflow=hidden;points=[[0,0.5],[1,0.5]];portConstraint=eastwest;rotatable=0;whiteSpace=wrap;html=1;" vertex="1" parent="0UET-josoI7YyRMoQ-3k-15">
          <mxGeometry y="30" width="160" height="30" as="geometry" />
        </mxCell>
        <mxCell id="0UET-josoI7YyRMoQ-3k-17" value="&lt;font style=&quot;font-size: 15px;&quot;&gt;file-2.txt&lt;/font&gt;" style="text;strokeColor=none;fillColor=none;align=left;verticalAlign=middle;spacingLeft=4;spacingRight=4;overflow=hidden;points=[[0,0.5],[1,0.5]];portConstraint=eastwest;rotatable=0;whiteSpace=wrap;html=1;" vertex="1" parent="0UET-josoI7YyRMoQ-3k-15">
          <mxGeometry y="60" width="160" height="30" as="geometry" />
        </mxCell>
        <mxCell id="0UET-josoI7YyRMoQ-3k-18" value="&lt;font style=&quot;font-size: 15px;&quot;&gt;file-3.txt&lt;/font&gt;" style="text;strokeColor=none;fillColor=none;align=left;verticalAlign=middle;spacingLeft=4;spacingRight=4;overflow=hidden;points=[[0,0.5],[1,0.5]];portConstraint=eastwest;rotatable=0;whiteSpace=wrap;html=1;" vertex="1" parent="0UET-josoI7YyRMoQ-3k-15">
          <mxGeometry y="90" width="160" height="30" as="geometry" />
        </mxCell>
        <mxCell id="0UET-josoI7YyRMoQ-3k-19" value="&lt;font style=&quot;font-size: 20px;&quot;&gt;commit-2&lt;/font&gt;" style="swimlane;fontStyle=0;childLayout=stackLayout;horizontal=1;startSize=30;horizontalStack=0;resizeParent=1;resizeParentMax=0;resizeLast=0;collapsible=1;marginBottom=0;whiteSpace=wrap;html=1;fillColor=#fff2cc;strokeColor=#d6b656;" vertex="1" parent="0UET-josoI7YyRMoQ-3k-14">
          <mxGeometry x="400" y="370" width="160" height="90" as="geometry">
            <mxRectangle x="-80" y="240" width="120" height="40" as="alternateBounds" />
          </mxGeometry>
        </mxCell>
        <mxCell id="0UET-josoI7YyRMoQ-3k-20" value="&lt;font style=&quot;font-size: 15px;&quot;&gt;file-1.txt&lt;/font&gt;" style="text;strokeColor=none;fillColor=none;align=left;verticalAlign=middle;spacingLeft=4;spacingRight=4;overflow=hidden;points=[[0,0.5],[1,0.5]];portConstraint=eastwest;rotatable=0;whiteSpace=wrap;html=1;" vertex="1" parent="0UET-josoI7YyRMoQ-3k-19">
          <mxGeometry y="30" width="160" height="30" as="geometry" />
        </mxCell>
        <mxCell id="0UET-josoI7YyRMoQ-3k-21" value="&lt;font style=&quot;font-size: 15px;&quot;&gt;file-2.txt&lt;/font&gt;" style="text;strokeColor=none;fillColor=none;align=left;verticalAlign=middle;spacingLeft=4;spacingRight=4;overflow=hidden;points=[[0,0.5],[1,0.5]];portConstraint=eastwest;rotatable=0;whiteSpace=wrap;html=1;" vertex="1" parent="0UET-josoI7YyRMoQ-3k-19">
          <mxGeometry y="60" width="160" height="30" as="geometry" />
        </mxCell>
        <mxCell id="0UET-josoI7YyRMoQ-3k-22" style="edgeStyle=orthogonalEdgeStyle;rounded=0;orthogonalLoop=1;jettySize=auto;html=1;entryX=0.5;entryY=0;entryDx=0;entryDy=0;" edge="1" parent="0UET-josoI7YyRMoQ-3k-14" source="0UET-josoI7YyRMoQ-3k-15" target="0UET-josoI7YyRMoQ-3k-19">
          <mxGeometry relative="1" as="geometry" />
        </mxCell>
        <mxCell id="0UET-josoI7YyRMoQ-3k-23" value="&lt;font style=&quot;font-size: 20px;&quot;&gt;commit-1&lt;/font&gt;" style="swimlane;fontStyle=0;childLayout=stackLayout;horizontal=1;startSize=30;horizontalStack=0;resizeParent=1;resizeParentMax=0;resizeLast=0;collapsible=1;marginBottom=0;whiteSpace=wrap;html=1;fillColor=#dae8fc;strokeColor=#6c8ebf;" vertex="1" parent="0UET-josoI7YyRMoQ-3k-14">
          <mxGeometry x="400" y="520" width="160" height="60" as="geometry" />
        </mxCell>
        <mxCell id="0UET-josoI7YyRMoQ-3k-24" value="&lt;font style=&quot;font-size: 15px;&quot;&gt;file-1.txt&lt;/font&gt;" style="text;strokeColor=none;fillColor=none;align=left;verticalAlign=middle;spacingLeft=4;spacingRight=4;overflow=hidden;points=[[0,0.5],[1,0.5]];portConstraint=eastwest;rotatable=0;whiteSpace=wrap;html=1;" vertex="1" parent="0UET-josoI7YyRMoQ-3k-23">
          <mxGeometry y="30" width="160" height="30" as="geometry" />
        </mxCell>
        <mxCell id="0UET-josoI7YyRMoQ-3k-25" style="edgeStyle=orthogonalEdgeStyle;rounded=0;orthogonalLoop=1;jettySize=auto;html=1;exitX=0.5;exitY=1;exitDx=0;exitDy=0;entryX=0.5;entryY=0;entryDx=0;entryDy=0;" edge="1" parent="0UET-josoI7YyRMoQ-3k-14" source="0UET-josoI7YyRMoQ-3k-19" target="0UET-josoI7YyRMoQ-3k-23">
          <mxGeometry relative="1" as="geometry" />
        </mxCell>
        <mxCell id="0UET-josoI7YyRMoQ-3k-26" value="&lt;font style=&quot;font-size: 20px;&quot;&gt;commit-4&lt;/font&gt;" style="swimlane;fontStyle=0;childLayout=stackLayout;horizontal=1;startSize=30;horizontalStack=0;resizeParent=1;resizeParentMax=0;resizeLast=0;collapsible=1;marginBottom=0;whiteSpace=wrap;html=1;fillColor=#e1d5e7;strokeColor=#9673a6;" vertex="1" parent="0UET-josoI7YyRMoQ-3k-14">
          <mxGeometry x="400" y="80" width="160" height="90" as="geometry" />
        </mxCell>
        <mxCell id="0UET-josoI7YyRMoQ-3k-27" value="&lt;font style=&quot;font-size: 15px;&quot;&gt;file-1.txt&lt;/font&gt;" style="text;strokeColor=none;fillColor=none;align=left;verticalAlign=middle;spacingLeft=4;spacingRight=4;overflow=hidden;points=[[0,0.5],[1,0.5]];portConstraint=eastwest;rotatable=0;whiteSpace=wrap;html=1;" vertex="1" parent="0UET-josoI7YyRMoQ-3k-26">
          <mxGeometry y="30" width="160" height="30" as="geometry" />
        </mxCell>
        <mxCell id="0UET-josoI7YyRMoQ-3k-28" value="&lt;font style=&quot;font-size: 15px;&quot;&gt;file-3.txt&lt;/font&gt;" style="text;strokeColor=none;fillColor=none;align=left;verticalAlign=middle;spacingLeft=4;spacingRight=4;overflow=hidden;points=[[0,0.5],[1,0.5]];portConstraint=eastwest;rotatable=0;whiteSpace=wrap;html=1;" vertex="1" parent="0UET-josoI7YyRMoQ-3k-26">
          <mxGeometry y="60" width="160" height="30" as="geometry" />
        </mxCell>
        <mxCell id="0UET-josoI7YyRMoQ-3k-29" style="edgeStyle=orthogonalEdgeStyle;rounded=0;orthogonalLoop=1;jettySize=auto;html=1;entryX=0.5;entryY=0;entryDx=0;entryDy=0;" edge="1" parent="0UET-josoI7YyRMoQ-3k-14">
          <mxGeometry relative="1" as="geometry">
            <mxPoint x="479.5" y="170" as="sourcePoint" />
            <mxPoint x="479.5" y="210" as="targetPoint" />
          </mxGeometry>
        </mxCell>
      </root>
    </mxGraphModel>
  </diagram>
</mxfile>
